<svg width="522" height="539" viewBox="0 0 522 539" fill="none" xmlns="http://www.w3.org/2000/svg">
<path d="M0.00304634 535.462V14.0792H70.1069V535.462H0.00304634Z" fill="#F5F5F5"/>
<path d="M3.06434e-06 0L319.122 1.78689e-05V70.1038L0 70.1038L3.06434e-06 0Z" fill="#F5F5F5"/>
<path d="M521.384 2.56572V523.948H451.28L451.28 2.56571L521.384 2.56572Z" fill="#F5F5F5"/>
<path d="M521.387 538.027L202.265 538.027L202.265 467.924L521.387 467.924V538.027Z" fill="#F5F5F5"/>
<path d="M253.425 387.217C237.021 387.217 222.693 383.254 210.441 375.328C198.19 367.401 188.534 356.417 181.474 342.376C174.621 328.109 171.195 311.916 171.195 293.798C171.195 275.454 174.725 259.261 181.785 245.22C188.846 231.179 198.605 220.195 211.064 212.269C223.731 204.116 238.267 200.039 254.671 200.039C264.016 200.039 272.633 201.398 280.524 204.116C288.415 206.607 295.267 210.117 301.082 214.647C307.104 219.176 311.984 224.158 315.721 229.594C319.667 235.029 322.262 240.691 323.508 246.579H312.606V203.776H361.82V384.16H311.672V337.96L322.262 339.659C321.016 345.547 318.421 351.322 314.475 356.984C310.53 362.645 305.442 367.741 299.213 372.27C292.983 376.8 285.923 380.423 278.032 383.141C270.349 385.859 262.147 387.217 253.425 387.217ZM266.819 341.357C276.163 341.357 284.262 339.432 291.114 335.582C298.175 331.732 303.574 326.297 307.311 319.276C311.257 312.029 313.229 303.536 313.229 293.798C313.229 284.286 311.257 276.02 307.311 269C303.574 261.753 298.175 256.091 291.114 252.014C284.262 247.938 276.163 245.9 266.819 245.9C257.475 245.9 249.376 247.938 242.524 252.014C235.671 256.091 230.272 261.753 226.327 269C222.589 276.02 220.72 284.286 220.72 293.798C220.72 303.536 222.589 312.029 226.327 319.276C230.272 326.297 235.671 331.732 242.524 335.582C249.376 339.432 257.475 341.357 266.819 341.357Z" fill="#F5F5F5"/>
<path d="M340.307 178.332C330.963 178.332 323.695 175.954 318.504 171.198C313.313 166.216 310.717 159.195 310.717 150.136C310.717 141.983 313.313 135.302 318.504 130.094C323.903 124.885 331.171 122.28 340.307 122.28C349.652 122.28 356.92 124.771 362.111 129.754C367.302 134.51 369.898 141.304 369.898 150.136C369.898 158.516 367.198 165.31 361.799 170.519C356.608 175.727 349.444 178.332 340.307 178.332Z" fill="#F5F5F5"/>
</svg>
