<svg width="631" height="84" viewBox="0 0 631 84" fill="none" xmlns="http://www.w3.org/2000/svg">
<path d="M0 82.8398V1.62431H40.5401C45.776 1.62431 50.4345 2.78453 54.5154 5.10498C58.6734 7.42542 61.9844 10.5967 64.4483 14.6188C66.9123 18.6409 68.1443 23.1657 68.1443 28.1934C68.1443 33.5304 66.8738 38.326 64.3328 42.5801C61.7919 46.7569 58.3654 50.0829 54.0535 52.558C49.8185 54.9558 45.006 56.1547 39.6161 56.1547H19.6348V82.8398H0ZM19.2883 38.8674H36.4976C38.4996 38.8674 40.3476 38.442 42.0416 37.5912C43.8126 36.663 45.1985 35.4254 46.1995 33.8785C47.2775 32.3315 47.8165 30.5525 47.8165 28.5414C47.8165 26.5304 47.2775 24.8287 46.1995 23.4365C45.1985 22.0442 43.8126 20.9613 42.0416 20.1878C40.3476 19.4144 38.4996 19.0276 36.4976 19.0276H19.2883V38.8674Z" fill="#131313"/>
<path d="M114.348 82.8398V1.62431H133.983V65.4365H176.487V82.8398H114.348Z" fill="#131313"/>
<path d="M301.031 82.8398V1.62431H319.049L367.905 59.6354L364.555 59.0552C364.093 56.3481 363.747 53.7569 363.516 51.2818C363.285 48.8066 363.054 46.4088 362.823 44.0884C362.669 41.768 362.515 39.4475 362.361 37.1271C362.284 34.8066 362.245 32.3702 362.245 29.8177C362.245 27.2652 362.245 24.558 362.245 21.6961V1.62431H381.302V82.8398H363.054L312.35 22.9724L317.778 23.7845C318.009 26.4917 318.24 28.9282 318.471 31.0939C318.779 33.2597 319.01 35.3094 319.164 37.2431C319.395 39.0994 319.549 40.9945 319.626 42.9282C319.78 44.7845 319.896 46.7569 319.973 48.8453C320.05 50.9337 320.088 53.2155 320.088 55.6906V82.8398H301.031Z" fill="#131313"/>
<path d="M472.255 84C465.864 84 459.897 82.9945 454.353 80.9834C448.886 78.895 444.073 75.9945 439.915 72.2818C435.834 68.5691 432.677 64.1602 430.444 59.0552C428.211 53.8729 427.095 48.1492 427.095 41.884C427.095 35.7735 428.25 30.1657 430.56 25.0608C432.947 19.9558 436.181 15.547 440.262 11.8343C444.343 8.12155 449.155 5.221 454.699 3.1326C460.243 1.0442 466.211 0 472.602 0C476.99 0 481.225 0.541436 485.306 1.62431C489.464 2.70718 493.314 4.21547 496.856 6.14917C500.398 8.08287 503.401 10.2873 505.865 12.7624L494.2 27.3812C492.352 25.6022 490.35 24.0552 488.194 22.7403C486.038 21.3481 483.612 20.2652 480.917 19.4917C478.222 18.6409 475.258 18.2155 472.024 18.2155C468.867 18.2155 465.787 18.7569 462.784 19.8398C459.781 20.9227 457.125 22.5083 454.815 24.5967C452.505 26.6077 450.657 29.1215 449.271 32.1381C447.962 35.0774 447.307 38.4033 447.307 42.116C447.307 45.8287 448 49.1547 449.386 52.0939C450.772 55.0331 452.659 57.547 455.046 59.6354C457.51 61.6464 460.359 63.1934 463.593 64.2762C466.827 65.3591 470.33 65.9006 474.103 65.9006C477.414 65.9006 480.417 65.4365 483.112 64.5083C485.807 63.5801 488.232 62.4586 490.388 61.1437C492.544 59.7514 494.469 58.2818 496.163 56.7348L505.519 71.9337C503.44 73.9447 500.668 75.8784 497.203 77.7348C493.738 79.5912 489.849 81.0994 485.537 82.2597C481.225 83.4199 476.798 84 472.255 84Z" fill="#131313"/>
<path d="M563.433 60.7956L558.698 44.0884L605.59 1.62431H629.73L563.433 60.7956ZM549.804 82.8398V1.62431H569.439V82.8398H549.804ZM607.669 82.8398L575.792 42.232L588.496 29.9337L631 82.8398H607.669Z" fill="#131313"/>
<path d="M262.983 81.0715H239.338L205.328 0.0400903H228.119L262.983 81.0715Z" fill="#131313"/>
</svg>
